<svg width="670" height="500" viewBox="0 0 670 500" fill="none" xmlns="http://www.w3.org/2000/svg">
<path d="M669.155 438.712H0V439.046H669.155V438.712Z" fill="#E6E6E6"/>
<path d="M167.048 458.96H122.723V459.295H167.048V458.96Z" fill="#E6E6E6"/>
<path d="M108.698 458.96H83.0154V459.295H108.698V458.96Z" fill="#E6E6E6"/>
<path d="M281.781 463.885H256.099V464.22H281.781V463.885Z" fill="#E6E6E6"/>
<path d="M415.692 471.353H357.891V471.687H415.692V471.353Z" fill="#E6E6E6"/>
<path d="M345.98 471.353H337.508V471.687H345.98V471.353Z" fill="#E6E6E6"/>
<path d="M606.723 463.885H481.35V464.22H606.723V463.885Z" fill="#E6E6E6"/>
<path d="M317.179 379.023H58.7651C56.7407 379.019 54.8004 378.213 53.3702 376.78C51.94 375.347 51.1367 373.406 51.1367 371.381V8.12366C51.1543 6.11088 51.9654 4.18633 53.3937 2.76804C54.822 1.34975 56.7522 0.552276 58.7651 0.548828H317.179C319.206 0.548828 321.15 1.35394 322.583 2.78705C324.016 4.22015 324.821 6.16386 324.821 8.19058V371.381C324.821 373.408 324.016 375.352 322.583 376.785C321.15 378.218 319.206 379.023 317.179 379.023ZM58.7651 0.816491C56.8294 0.820036 54.9743 1.59146 53.6068 2.96144C52.2393 4.33141 51.4713 6.188 51.4713 8.12366V371.381C51.4713 373.317 52.2393 375.173 53.6068 376.543C54.9743 377.913 56.8294 378.685 58.7651 378.688H317.179C319.116 378.685 320.973 377.914 322.342 376.544C323.712 375.175 324.483 373.318 324.487 371.381V8.12366C324.483 6.18677 323.712 4.33021 322.342 2.96062C320.973 1.59102 319.116 0.820029 317.179 0.816491H58.7651Z" fill="#E6E6E6"/>
<path d="M606.669 379.023H348.242C346.216 379.019 344.274 378.213 342.842 376.781C341.41 375.348 340.603 373.407 340.6 371.381V8.12366C340.621 6.10966 341.435 4.18512 342.865 2.7672C344.296 1.34928 346.227 0.552239 348.242 0.548828H606.669C608.68 0.555793 610.607 1.35482 612.032 2.77274C613.457 4.19065 614.267 6.11319 614.284 8.12366V371.381C614.284 373.403 613.483 375.343 612.056 376.775C610.628 378.208 608.691 379.016 606.669 379.023ZM348.242 0.816491C346.305 0.820029 344.448 1.59102 343.079 2.96062C341.709 4.33021 340.938 6.18677 340.934 8.12366V371.381C340.938 373.318 341.709 375.175 343.079 376.544C344.448 377.914 346.305 378.685 348.242 378.688H606.669C608.606 378.685 610.463 377.914 611.832 376.544C613.202 375.175 613.973 373.318 613.976 371.381V8.12366C613.973 6.18677 613.202 4.33021 611.832 2.96062C610.463 1.59102 608.606 0.820029 606.669 0.816491H348.242Z" fill="#E6E6E6"/>
<path d="M357.864 324.393H328.435V441.134H357.864V324.393Z" fill="#E0E0E0"/>
<path d="M352.27 441.134H357.864V425.235H346.408L352.27 441.134Z" fill="#FAFAFA"/>
<path d="M228.905 324.393H199.475V441.134H228.905V324.393Z" fill="#E0E0E0"/>
<path d="M357.864 324.393H224.033V431.378H357.864V324.393Z" fill="#FAFAFA"/>
<path d="M353.006 329.653V357.958H228.851V329.653H352.966H353.006ZM353.488 329.131H228.369V358.466H353.528V329.131H353.488Z" fill="#E0E0E0"/>
<path d="M229.614 441.134H224.033V425.235H235.476L229.614 441.134Z" fill="#FAFAFA"/>
<path d="M287.991 343.799C287.991 344.384 288.164 344.955 288.489 345.442C288.814 345.928 289.276 346.307 289.817 346.531C290.357 346.755 290.952 346.813 291.526 346.699C292.099 346.585 292.626 346.304 293.04 345.89C293.454 345.476 293.735 344.949 293.849 344.376C293.964 343.802 293.905 343.207 293.681 342.667C293.457 342.126 293.078 341.664 292.592 341.339C292.105 341.014 291.534 340.841 290.949 340.841C290.164 340.841 289.412 341.152 288.857 341.707C288.303 342.262 287.991 343.014 287.991 343.799Z" fill="#E6E6E6"/>
<path d="M353.006 363.726V392.031H228.851V363.726H352.966H353.006ZM353.488 363.217H228.369V392.553H353.528V363.231L353.488 363.217Z" fill="#E0E0E0"/>
<path d="M287.991 377.952C287.991 378.537 288.164 379.109 288.489 379.595C288.814 380.082 289.276 380.461 289.817 380.685C290.357 380.909 290.952 380.967 291.526 380.853C292.099 380.739 292.626 380.457 293.04 380.044C293.454 379.63 293.735 379.103 293.849 378.529C293.964 377.956 293.905 377.361 293.681 376.82C293.457 376.28 293.078 375.818 292.592 375.493C292.105 375.168 291.534 374.995 290.949 374.995C290.164 374.995 289.412 375.306 288.857 375.861C288.303 376.415 287.991 377.168 287.991 377.952Z" fill="#E6E6E6"/>
<path d="M353.006 397.813V426.131H228.851V397.813H352.966H353.006ZM353.488 397.291H228.369V426.64H353.528V397.291H353.488Z" fill="#E0E0E0"/>
<path d="M287.991 411.972C287.994 412.557 288.169 413.127 288.496 413.612C288.823 414.096 289.285 414.473 289.826 414.695C290.367 414.917 290.961 414.974 291.534 414.858C292.107 414.742 292.632 414.46 293.045 414.045C293.457 413.631 293.737 413.104 293.85 412.531C293.963 411.957 293.904 411.363 293.68 410.824C293.456 410.284 293.077 409.823 292.59 409.499C292.104 409.174 291.533 409.001 290.949 409.001C290.559 409.001 290.173 409.078 289.814 409.227C289.454 409.377 289.127 409.596 288.853 409.872C288.578 410.148 288.36 410.476 288.212 410.836C288.064 411.197 287.989 411.583 287.991 411.972Z" fill="#E6E6E6"/>
<path d="M210.931 256.594H181.501V441.147H210.931V256.594Z" fill="#E0E0E0"/>
<path d="M205.337 441.134H210.931V425.235H199.489L205.337 441.134Z" fill="#FAFAFA"/>
<path d="M100.949 256.594H71.5193V441.147H100.949V256.594Z" fill="#E0E0E0"/>
<path d="M210.931 256.594H96.064V431.391H210.931V256.594Z" fill="#FAFAFA"/>
<path d="M205.979 261.519V301.093H101.016V261.519H205.979ZM206.595 260.917H100.373V301.668H206.568V260.93L206.595 260.917Z" fill="#E0E0E0"/>
<path d="M205.979 305.924V410.888H155.98V305.924H205.979ZM206.595 305.309H155.378V411.504H206.595V305.309Z" fill="#E0E0E0"/>
<path d="M151.015 305.924V410.888H101.016V305.924H151.015ZM151.617 305.309H100.373V411.504H151.59V305.309H151.617Z" fill="#E0E0E0"/>
<path d="M101.658 441.134H96.064V425.235H107.52L101.658 441.134Z" fill="#FAFAFA"/>
<path d="M150.533 281.326C150.531 281.914 150.703 282.49 151.027 282.98C151.352 283.471 151.815 283.854 152.358 284.081C152.901 284.308 153.498 284.368 154.076 284.255C154.653 284.142 155.183 283.86 155.6 283.445C156.017 283.03 156.301 282.501 156.417 281.924C156.533 281.347 156.475 280.749 156.25 280.206C156.026 279.662 155.645 279.197 155.156 278.87C154.667 278.543 154.092 278.369 153.504 278.369C152.719 278.369 151.965 278.68 151.408 279.234C150.851 279.788 150.537 280.541 150.533 281.326Z" fill="#E6E6E6"/>
<path d="M161.133 355.91C161.133 356.498 161.307 357.073 161.634 357.562C161.961 358.051 162.426 358.432 162.97 358.656C163.513 358.881 164.112 358.939 164.688 358.823C165.265 358.707 165.794 358.423 166.209 358.006C166.624 357.589 166.906 357.059 167.019 356.482C167.132 355.904 167.072 355.307 166.845 354.764C166.618 354.221 166.235 353.758 165.745 353.433C165.254 353.109 164.678 352.937 164.09 352.939C163.701 352.939 163.315 353.016 162.955 353.166C162.596 353.315 162.269 353.534 161.994 353.81C161.719 354.086 161.502 354.414 161.354 354.774C161.206 355.135 161.131 355.521 161.133 355.91Z" fill="#E6E6E6"/>
<path d="M139.947 355.91C139.95 356.495 140.125 357.065 140.452 357.55C140.779 358.034 141.241 358.411 141.782 358.633C142.323 358.855 142.917 358.912 143.49 358.796C144.063 358.681 144.588 358.398 145.001 357.984C145.413 357.569 145.693 357.042 145.806 356.469C145.92 355.896 145.86 355.302 145.636 354.762C145.412 354.222 145.033 353.761 144.547 353.437C144.06 353.112 143.489 352.939 142.905 352.939C142.515 352.939 142.129 353.016 141.77 353.166C141.41 353.315 141.083 353.534 140.809 353.81C140.534 354.086 140.316 354.414 140.168 354.774C140.02 355.135 139.945 355.521 139.947 355.91Z" fill="#E6E6E6"/>
<path d="M136.601 205.136H124.195C125.338 211.154 126.058 217.245 126.35 223.364C126.35 230.056 116.901 256.594 130.365 256.594C143.828 256.594 134.38 230.122 134.38 223.364C134.693 217.244 135.436 211.153 136.601 205.136Z" fill="#E0E0E0"/>
<path d="M89.3992 232.277V240.307C89.4133 244.612 91.1295 248.736 94.1734 251.78C97.2173 254.824 101.342 256.54 105.646 256.554H113.676C117.981 256.54 122.105 254.824 125.149 251.78C128.193 248.736 129.909 244.612 129.923 240.307V232.277H89.3992Z" fill="#F5F5F5"/>
<path d="M261.867 307.37C261.867 316.738 272.346 324.393 285.154 324.393H296.717C309.524 324.393 320.003 316.738 320.003 307.37H261.867Z" fill="#E0E0E0"/>
<path d="M568.26 293.639C561.247 299.367 551.558 309.846 542.698 324.594C536.783 334.417 533.223 344.668 531.657 358.292C531.657 342.902 531.751 326.374 531.804 310.769C533.584 306.754 537.653 297.493 540.57 290.186C550.3 265.788 553.953 259.779 562.693 238.741C574.376 210.637 586.34 177.366 582.914 180.03C575.928 185.45 549.162 235.569 546.271 242.743C538.392 261.886 533.521 282.133 531.831 302.766C531.831 288.045 531.938 274.661 531.992 264.276C532.179 230.404 532.755 219.47 533.036 216.097C534.12 214.384 535.391 212.39 536.14 211.319C542.43 202.219 544.853 194.483 550.768 180.913C559.173 161.708 566.4 127.595 564.285 129.308C555.479 136.481 548.547 151.872 539.419 171.505C530.292 191.138 532.902 202.419 531.095 219.175C530.72 222.467 530.426 234.887 530.212 252.084C527.856 233.749 523.413 221.678 515.316 210.704C505.359 197.2 495.723 188.086 488.657 183.322C481.591 178.557 500.863 211.721 510.07 226.148C518.274 239.049 525.835 250.411 530.145 261.613C529.917 284.94 529.81 314.463 529.81 341.912C527.696 329.412 524.243 315.935 519.639 305.51C514.098 292.983 505.587 273.765 498.802 267.247C497.182 265.681 505.895 303.06 511.489 312.991C517.083 322.921 521.192 332.302 524.711 337.937C525.528 339.275 528.258 344.32 529.81 347.238C529.81 380.789 529.998 410.393 530.292 420.47H531.737C531.644 417.874 531.617 400.797 531.657 378.207C535.15 365.948 543.126 351.949 549.711 339.181C556.884 325.357 575.273 287.951 568.26 293.639Z" fill="#E0E0E0"/>
<path d="M551.973 441.134H510.03L506.858 400.021H555.144L551.973 441.134Z" fill="#F0F0F0"/>
<path d="M558.263 404.812H503.727L502.174 390.934H559.828L558.263 404.812Z" fill="#F5F5F5"/>
<path d="M166.298 27.9841H91.2861V110.357H166.298V27.9841Z" fill="#E0E0E0"/>
<path d="M174.422 27.9841H96.9338V110.357H174.422V27.9841Z" fill="#F5F5F5"/>
<path d="M167.931 103.866V34.475L103.425 34.475V103.866H167.931Z" fill="white"/>
<path d="M152.286 87.0304V51.2842H119.056V87.0304H152.286Z" fill="#F5F5F5"/>
<path d="M548.774 37.5798H479.088V114.104H548.774V37.5798Z" fill="#E0E0E0"/>
<path d="M556.322 37.5798H484.348V114.104H556.322V37.5798Z" fill="#F5F5F5"/>
<path d="M550.3 108.069V43.6156L490.384 43.6156V108.069H550.3Z" fill="white"/>
<path d="M520.335 94.5383C530.66 94.5383 539.031 86.1677 539.031 75.8421C539.031 65.5165 530.66 57.1459 520.335 57.1459C510.009 57.1459 501.639 65.5165 501.639 75.8421C501.639 86.1677 510.009 94.5383 520.335 94.5383Z" fill="#F5F5F5"/>
<path d="M244.228 77.1002H188.581V138.207H244.228V77.1002Z" fill="#E0E0E0"/>
<path d="M250.25 77.1002H192.77V138.207H250.25V77.1002Z" fill="#F5F5F5"/>
<path d="M245.433 133.389V81.918H197.588V133.389H245.433Z" fill="white"/>
<path d="M221.517 94.6321L208.428 117.303H234.606L221.517 94.6321Z" fill="#F5F5F5"/>
<path d="M334.577 499.15C477.887 499.15 594.062 492.367 594.062 484C594.062 475.633 477.887 468.85 334.577 468.85C191.268 468.85 75.0925 475.633 75.0925 484C75.0925 492.367 191.268 499.15 334.577 499.15Z" fill="#F5F5F5"/>
<path d="M467.405 145.662L454.129 140.309C454.129 140.309 436.61 172.254 431.592 173.873C424.766 176.068 410.634 182.171 402.256 183.242C401.118 184.58 399.258 188.742 399.432 190.254C410.687 194.015 435.419 189.023 440.719 185.088C452.777 176.162 467.405 145.662 467.405 145.662Z" fill="#E58A7B"/>
<path d="M471.487 138.395C473.963 147.535 460.553 165.924 460.553 165.924L442.981 156.074C442.981 156.074 446.273 148.512 450.288 140.817C456.725 128.384 468.663 127.969 471.487 138.395Z" fill="#407BFF"/>
<path opacity="0.2" d="M471.487 138.395C473.963 147.535 460.553 165.924 460.553 165.924L442.981 156.074C442.981 156.074 446.273 148.512 450.288 140.817C456.725 128.384 468.663 127.969 471.487 138.395Z" fill="black"/>
<path opacity="0.2" d="M449.953 160.009L456.872 163.89L458.09 142.651C454.062 145.742 451.225 155.057 449.953 160.009Z" fill="black"/>
<path d="M459.924 131.516C459.924 131.516 446.246 161.949 454.222 218.613H508.116C508.973 210.342 506.135 169.979 516.4 131.007C510.488 129.852 504.506 129.087 498.494 128.719C490.867 128.277 483.222 128.277 475.595 128.719C470.308 129.256 465.07 130.191 459.924 131.516Z" fill="#407BFF"/>
<path opacity="0.2" d="M459.924 131.516C459.924 131.516 446.246 161.949 454.222 218.613H508.116C508.973 210.342 506.135 169.979 516.4 131.007C510.488 129.852 504.506 129.087 498.494 128.719C490.867 128.277 483.222 128.277 475.595 128.719C470.308 129.256 465.07 130.191 459.924 131.516Z" fill="black"/>
<g style="mix-blend-mode:multiply">
<path d="M447.424 485.204C447.344 486.65 467.78 487.814 493.06 487.814C518.341 487.814 538.924 486.65 539.004 485.204C539.085 483.759 518.662 482.608 493.368 482.608C468.074 482.608 447.518 483.772 447.424 485.204Z" fill="#E8ECF1"/>
</g>
<path d="M483.398 447.227L473.84 450.927L482.073 472.198L491.632 468.498L483.398 447.227Z" fill="#E58A7B"/>
<path d="M526.023 474.913H515.945L512.251 451.586H522.329L526.023 474.913Z" fill="#E58A7B"/>
<path d="M515.249 473.749H526.572C526.768 473.749 526.958 473.819 527.107 473.947C527.257 474.074 527.356 474.251 527.388 474.444L528.847 483.398C528.877 483.622 528.859 483.851 528.794 484.068C528.729 484.285 528.617 484.485 528.467 484.656C528.317 484.826 528.133 484.962 527.926 485.054C527.719 485.146 527.494 485.193 527.267 485.191C523.319 485.124 521.419 484.883 516.441 484.883C513.376 484.883 507.072 485.204 502.817 485.204C498.561 485.204 498.28 481.029 500.033 480.641C507.902 478.941 510.953 476.626 513.577 474.378C514.039 473.971 514.634 473.748 515.249 473.749Z" fill="#263238"/>
<path d="M481.792 470.296L492.498 467.164C492.689 467.11 492.893 467.123 493.076 467.201C493.258 467.279 493.409 467.417 493.502 467.592L497.517 475.622C497.61 475.826 497.658 476.048 497.656 476.272C497.655 476.496 497.605 476.717 497.509 476.919C497.414 477.122 497.275 477.301 497.103 477.445C496.931 477.588 496.73 477.692 496.513 477.75C492.619 478.821 490.009 479.477 485.137 480.895C481.778 481.872 478.352 483.465 475.033 484.522C472.731 485.258 467.325 485.285 464.527 485.285C460.392 485.285 459.469 480.922 461.249 480.721C465.732 480.226 466.334 480.453 468.81 479.209C472.861 477.438 476.533 474.902 479.624 471.741C480.206 471.077 480.954 470.578 481.792 470.296Z" fill="#263238"/>
<path d="M403.942 183.188L392.861 178.544L388.297 190.83C392.839 191.522 397.46 191.522 402.002 190.83L403.942 183.188Z" fill="#E58A7B"/>
<path d="M384.617 178.223L384.323 186.387L388.297 190.803L392.861 178.517L384.617 178.223Z" fill="#E58A7B"/>
<path d="M484.71 449.033L475.121 452.735L479.368 463.734L488.956 460.032L484.71 449.033Z" fill="#CF6F64"/>
<path d="M522.329 451.586H512.251L514.165 463.618H524.243L522.329 451.586Z" fill="#CF6F64"/>
<path opacity="0.2" d="M452.509 203.29C452.71 205.712 452.938 208.188 453.232 210.731L493.301 197.722C499.558 195.868 504.997 191.935 508.718 186.574C508.879 183.001 509.08 179.24 509.387 175.319C509.521 173.418 509.682 171.464 509.856 169.484C510.03 167.503 510.271 165.308 510.525 163.194L452.509 203.29Z" fill="black"/>
<path d="M465.598 159.393L464.26 159.232C465.049 152.541 470.041 147.268 475.301 147.402V148.74C470.697 148.646 466.307 153.397 465.598 159.393Z" fill="white"/>
<path d="M472.731 171.745H472.504V170.407C477.107 170.581 481.43 165.777 482.14 159.794L483.478 159.955C482.769 166.499 477.937 171.745 472.731 171.745Z" fill="white"/>
<path d="M497.744 102.93C495.857 110.304 493.636 123.807 498.494 128.719C498.494 128.719 495.094 136.2 481.403 136.2C468.89 136.2 475.595 128.719 475.595 128.719C483.92 126.765 484.067 120.689 482.969 114.934L497.744 102.93Z" fill="#E58A7B"/>
<path d="M491.722 107.828L482.983 114.934C483.254 116.257 483.41 117.6 483.451 118.949C486.007 121.492 491.133 115.055 491.655 111.762C491.92 110.466 491.943 109.132 491.722 107.828Z" fill="#CF6F64"/>
<path d="M467.953 102.836C468.561 103.89 469.38 104.807 470.359 105.53C471.338 106.253 472.455 106.767 473.641 107.038C476.853 107.748 478.459 104.79 477.576 101.819C476.786 99.1422 474.15 95.5421 470.884 96.1578C470.185 96.3019 469.53 96.6114 468.975 97.0606C468.42 97.5098 467.98 98.0855 467.693 98.7394C467.406 99.3934 467.28 100.107 467.325 100.819C467.37 101.532 467.586 102.224 467.953 102.836Z" fill="#CF6F64"/>
<path d="M473.267 79.2416C468.261 81.5301 466.495 101.417 472.785 104.362C479.075 107.306 482.742 74.8921 473.267 79.2416Z" fill="#263238"/>
<path d="M499.27 91.835C498.065 101.819 497.932 107.694 492.578 112.806C490.919 114.503 488.824 115.708 486.523 116.289C484.223 116.869 481.807 116.803 479.541 116.097C477.276 115.39 475.25 114.072 473.687 112.287C472.124 110.502 471.085 108.32 470.684 105.981C469.064 97.0142 471.299 82.1992 481.31 78.2244C483.413 77.2966 485.726 76.9484 488.009 77.2157C490.293 77.4829 492.463 78.3561 494.295 79.7445C496.127 81.133 497.555 82.9862 498.429 85.1121C499.304 87.238 499.594 89.5592 499.27 91.835Z" fill="#E58A7B"/>
<path d="M482.822 84.4074C490.236 82.5203 495.683 81.2356 493.729 87.4052C491.146 95.6492 488.042 103.625 492.204 103.987C494.746 104.214 505.988 99.45 504.556 94.6187C503.312 90.4164 508.571 89.2654 509.508 87.1375C512.974 79.4288 503.057 80.446 504.824 75.7619C506.591 71.0778 496.794 63.5297 491.441 67.2904C482.728 73.3663 467.78 73.2726 475.635 63.2754C481.27 56.1423 471.219 57.601 471.219 57.601C471.219 57.601 477.295 61.2011 467.07 66.7684C456.257 72.7105 466.174 88.6766 482.822 84.4074Z" fill="#263238"/>
<path d="M503.204 102.836C501.741 104.954 499.542 106.452 497.035 107.038C493.729 107.748 492.458 104.79 493.702 101.819C494.813 99.1422 497.865 95.5421 501.023 96.1578C504.181 96.7734 504.904 100.213 503.204 102.836Z" fill="#E58A7B"/>
<path d="M454.222 218.613C454.222 218.613 445.175 299.581 444.466 330.308C443.743 362.267 475.127 461.985 475.127 461.985L491.187 455.293C491.187 455.293 472.45 364.181 475.127 332.798C477.964 298.577 489.688 218.667 489.688 218.667L454.222 218.613Z" fill="#407BFF"/>
<path opacity="0.2" d="M476.706 240.842C469.493 255.805 474.351 285.395 478.258 302.927C479.744 290.547 481.511 277.111 483.183 264.678C483.023 245.567 481.537 230.805 476.706 240.842Z" fill="black"/>
<path d="M490.477 449.993C490.558 449.993 492.378 455.106 492.378 455.106L473.855 462.895L470.938 457.461L490.477 449.993Z" fill="#407BFF"/>
<path d="M473.347 218.613C473.347 218.613 480.266 295.619 484.843 324.46C489.875 356.058 509.602 461.289 509.602 461.289H528.057C528.057 461.289 517.003 358.614 514.915 327.324C512.64 293.384 508.116 218.613 508.116 218.613H473.347Z" fill="#407BFF"/>
<path d="M528.338 456.484C528.418 456.484 528.954 461.637 528.954 461.637H508.665L507.219 455.721L528.338 456.484Z" fill="#407BFF"/>
<path opacity="0.2" d="M521.272 450.382C521.23 450.382 521.189 450.368 521.157 450.341C521.125 450.313 521.104 450.276 521.098 450.234C520.991 449.298 511.02 356.553 509.147 328.448C507.113 297.962 503.017 230.337 502.977 229.654C502.975 229.632 502.978 229.61 502.985 229.589C502.993 229.568 503.004 229.548 503.019 229.532C503.034 229.515 503.053 229.502 503.073 229.494C503.093 229.485 503.115 229.48 503.138 229.48C503.182 229.48 503.224 229.497 503.256 229.526C503.289 229.556 503.308 229.597 503.312 229.641C503.312 230.323 507.447 297.895 509.481 328.435C511.355 356.539 521.325 449.217 521.419 450.221C521.423 450.243 521.422 450.266 521.416 450.288C521.411 450.309 521.401 450.33 521.387 450.347C521.373 450.365 521.356 450.38 521.336 450.39C521.316 450.401 521.294 450.407 521.272 450.408V450.382Z" fill="black"/>
<path d="M483.96 94.6187C483.96 95.4351 483.451 96.0908 482.916 96.0908C482.381 96.0908 481.992 95.4351 482.046 94.6187C482.099 93.8023 482.555 93.1465 483.09 93.1465C483.625 93.1465 484.013 93.8157 483.96 94.6187Z" fill="#263238"/>
<path d="M474.779 94.6187C474.779 95.4351 474.257 96.0908 473.735 96.0908C473.213 96.0908 472.811 95.4351 472.852 94.6187C472.892 93.8023 473.374 93.1465 473.909 93.1465C474.444 93.1465 474.832 93.8157 474.779 94.6187Z" fill="#263238"/>
<path d="M477.67 95.0336C476.552 97.5265 475.113 99.8618 473.387 101.979C474.725 103.318 477.228 102.702 477.228 102.702L477.67 95.0336Z" fill="#DF5753"/>
<path d="M477.911 106.115C477.88 106.115 477.849 106.109 477.82 106.096C477.792 106.084 477.766 106.066 477.745 106.044C477.723 106.021 477.707 105.994 477.696 105.965C477.686 105.936 477.681 105.905 477.683 105.874C477.686 105.809 477.715 105.748 477.762 105.703C477.809 105.658 477.872 105.633 477.937 105.633C478.961 105.64 479.973 105.418 480.899 104.982C481.826 104.547 482.643 103.91 483.291 103.117C483.337 103.077 483.396 103.054 483.458 103.054C483.519 103.054 483.579 103.077 483.625 103.117C483.668 103.162 483.693 103.222 483.693 103.284C483.693 103.347 483.668 103.407 483.625 103.452C482.932 104.294 482.059 104.97 481.07 105.431C480.081 105.892 479.001 106.126 477.911 106.115Z" fill="#263238"/>
<path d="M485.592 92.1562C485.528 92.1891 485.457 92.2063 485.385 92.2063C485.313 92.2063 485.242 92.1891 485.178 92.1562C484.677 91.8326 484.107 91.6312 483.514 91.5685C482.921 91.5057 482.322 91.5833 481.765 91.7949C481.711 91.8221 481.651 91.8381 481.591 91.842C481.53 91.8459 481.469 91.8376 481.412 91.8177C481.355 91.7977 481.302 91.7665 481.257 91.7258C481.212 91.6851 481.175 91.6358 481.149 91.5808C481.1 91.4617 481.098 91.3279 481.146 91.2079C481.193 91.0879 481.286 90.9912 481.404 90.9384C482.103 90.6526 482.862 90.5399 483.614 90.6098C484.367 90.6797 485.091 90.9301 485.726 91.3399C485.778 91.3747 485.821 91.4195 485.855 91.4714C485.889 91.5234 485.912 91.5816 485.924 91.6426C485.935 91.7036 485.934 91.7662 485.921 91.8268C485.907 91.8874 485.882 91.9448 485.847 91.9956C485.779 92.0724 485.691 92.1281 485.592 92.1562Z" fill="#263238"/>
<path d="M471.232 89.4796C471.161 89.4624 471.096 89.4252 471.045 89.3726C471 89.3289 470.965 89.2769 470.941 89.2194C470.917 89.162 470.904 89.1003 470.904 89.038C470.904 88.9757 470.917 88.914 470.941 88.8565C470.965 88.7991 471 88.747 471.045 88.7034C471.558 88.1281 472.197 87.679 472.912 87.3912C473.627 87.1033 474.398 86.9845 475.167 87.0439C475.228 87.0534 475.287 87.0754 475.34 87.1086C475.393 87.1419 475.438 87.1855 475.473 87.237C475.508 87.2884 475.533 87.3465 475.544 87.4077C475.556 87.4689 475.555 87.5318 475.542 87.5926C475.513 87.7165 475.44 87.8257 475.336 87.8996C475.233 87.9736 475.106 88.0072 474.98 87.9941C474.371 87.9558 473.763 88.0564 473.199 88.2882C472.636 88.5201 472.132 88.8772 471.727 89.3324C471.666 89.4001 471.588 89.4497 471.501 89.4757C471.413 89.5017 471.32 89.503 471.232 89.4796Z" fill="#263238"/>
<path d="M521.579 144.176L507.661 140.469C507.661 140.469 494.01 174.074 489.179 176.256C482.621 179.253 466.013 189.639 458.947 194.55C458.558 196.223 458.866 200.653 459.75 201.871C471.794 199.676 494.853 190.803 499.671 186.293C510.659 176.001 521.579 144.176 521.579 144.176Z" fill="#E58A7B"/>
<path d="M511.863 475.515C511.184 475.569 510.508 475.384 509.95 474.993C509.777 474.838 509.648 474.64 509.576 474.419C509.503 474.199 509.489 473.963 509.535 473.735C509.543 473.593 509.59 473.456 509.67 473.338C509.75 473.22 509.861 473.126 509.99 473.066C511.114 472.491 514.259 474.485 514.62 474.712C514.66 474.737 514.691 474.773 514.708 474.817C514.725 474.86 514.727 474.908 514.714 474.953C514.703 475 514.679 475.043 514.647 475.078C514.614 475.113 514.572 475.139 514.527 475.154C513.654 475.368 512.761 475.489 511.863 475.515ZM510.525 473.427C510.424 473.405 510.319 473.405 510.217 473.427C510.166 473.453 510.123 473.494 510.095 473.544C510.066 473.594 510.053 473.651 510.057 473.708C510.021 473.864 510.027 474.027 510.074 474.179C510.121 474.332 510.207 474.47 510.324 474.578C510.846 475.047 512.158 475.1 513.884 474.766C512.856 474.089 511.699 473.633 510.485 473.427H510.525Z" fill="#407BFF"/>
<path d="M514.46 475.154C514.425 475.165 514.388 475.165 514.353 475.154C513.349 474.592 511.462 472.383 511.743 471.259C511.785 471.081 511.886 470.922 512.029 470.808C512.172 470.694 512.35 470.631 512.533 470.63C512.712 470.606 512.895 470.621 513.068 470.674C513.241 470.728 513.401 470.817 513.536 470.938C514.647 471.888 514.714 474.806 514.714 474.953C514.721 474.997 514.712 475.042 514.69 475.081C514.669 475.119 514.635 475.15 514.594 475.167C514.549 475.176 514.502 475.172 514.46 475.154ZM512.666 471.072H512.573C512.265 471.072 512.225 471.246 512.211 471.313C512.051 471.969 513.242 473.641 514.232 474.431C514.228 473.3 513.878 472.198 513.229 471.273C513.073 471.137 512.872 471.065 512.666 471.072Z" fill="#407BFF"/>
<path d="M476.331 473.842C475.512 474.128 474.621 474.128 473.802 473.842C473.616 473.741 473.458 473.595 473.344 473.418C473.229 473.24 473.161 473.036 473.146 472.825C473.129 472.693 473.146 472.558 473.195 472.434C473.244 472.31 473.324 472.201 473.427 472.116C474.498 471.152 478.874 472.116 479.369 472.303C479.416 472.315 479.458 472.343 479.487 472.382C479.516 472.421 479.531 472.469 479.53 472.517C479.532 472.567 479.519 472.617 479.493 472.66C479.466 472.703 479.428 472.737 479.383 472.758C478.397 473.203 477.376 473.566 476.331 473.842ZM474.15 472.25C473.997 472.28 473.854 472.349 473.735 472.45C473.692 472.482 473.66 472.526 473.641 472.575C473.622 472.625 473.617 472.679 473.628 472.731C473.637 472.872 473.68 473.008 473.755 473.127C473.83 473.246 473.933 473.345 474.056 473.414C474.765 473.789 476.411 473.494 478.539 472.598C477.106 472.236 475.622 472.118 474.15 472.25Z" fill="#407BFF"/>
<path d="M479.342 472.758H479.235C477.897 472.517 475.22 470.978 475.14 469.827C475.14 469.56 475.261 469.185 475.903 468.971C476.12 468.894 476.35 468.861 476.58 468.875C476.81 468.888 477.035 468.948 477.241 469.051C478.687 469.76 479.449 472.33 479.49 472.45C479.499 472.491 479.498 472.533 479.486 472.573C479.474 472.613 479.453 472.649 479.423 472.678C479.403 472.711 479.375 472.738 479.342 472.758ZM476.171 469.372H476.037C475.622 469.52 475.622 469.694 475.622 469.747C475.622 470.443 477.562 471.714 478.914 472.143C478.603 471.068 477.944 470.126 477.041 469.466C476.772 469.329 476.462 469.296 476.171 469.372Z" fill="#407BFF"/>
<path d="M460.084 193.761L446.126 200.185L444.506 204.2L449.659 207.666C449.659 207.666 459.295 206.622 462.038 200.426L460.084 193.761Z" fill="#E58A7B"/>
<path d="M460.673 202.098C460.361 199.416 459.476 196.833 458.077 194.524L460.285 192.864C461.946 195.525 463.006 198.517 463.39 201.63L460.673 202.098Z" fill="#263238"/>
<path d="M463.055 195.661C463.35 196.125 463.495 196.669 463.47 197.218C463.446 197.768 463.252 198.296 462.916 198.732C462.58 199.167 462.118 199.489 461.593 199.653C461.068 199.816 460.505 199.814 459.982 199.647C459.458 199.479 458.998 199.155 458.665 198.717C458.333 198.279 458.143 197.749 458.122 197.199C458.101 196.65 458.25 196.107 458.548 195.645C458.847 195.183 459.28 194.824 459.79 194.617C460.362 194.326 461.026 194.272 461.637 194.467C462.249 194.663 462.758 195.092 463.055 195.661Z" fill="#263238"/>
<path d="M436.69 205.377L438.551 207.251L451.077 201.898L446.126 200.185L436.69 205.377Z" fill="#E58A7B"/>
<path opacity="0.2" d="M490.477 449.993C490.558 449.993 492.378 455.106 492.378 455.106L473.855 462.895L470.938 457.461L490.477 449.993Z" fill="black"/>
<path opacity="0.2" d="M528.338 456.484C528.418 456.484 528.954 461.637 528.954 461.637H508.665L507.219 455.721L528.338 456.484Z" fill="black"/>
<path d="M525.206 140.322C528.887 152.193 514.5 168.426 514.5 168.426L494.626 160.316C496.982 153.455 499.698 146.723 502.763 140.148C508.866 126.992 521.486 128.344 525.206 140.322Z" fill="#407BFF"/>
<path opacity="0.2" d="M525.206 140.322C528.887 152.193 514.5 168.426 514.5 168.426L494.626 160.316C496.982 153.455 499.698 146.723 502.763 140.148C508.866 126.992 521.486 128.344 525.206 140.322Z" fill="black"/>
<path d="M327.725 21.3864H319.174V22.7648H327.725V21.3864Z" fill="#407BFF"/>
<path d="M438.428 75.9445L437.393 98.9134L438.77 98.9754L439.805 76.0066L438.428 75.9445Z" fill="#407BFF"/>
<path d="M435.767 27.5693H277.846L263.152 356.419H421.072L435.767 27.5693Z" fill="#407BFF"/>
<path opacity="0.56" d="M431.056 32.0928H273.136L258.441 360.942H416.361L431.056 32.0928Z" fill="#FAFAFA"/>
<path opacity="0.07" d="M426.345 36.6029H268.425L253.717 365.452H411.637L426.345 36.6029Z" fill="#407BFF"/>
<path d="M408.372 180.03H273.577L272.453 205.19H407.248L408.372 180.03Z" fill="white"/>
<path d="M347.706 161.668H274.394L273.898 172.923H347.211L347.706 161.668Z" fill="#407BFF"/>
<path d="M405.334 247.935H270.539L269.415 273.096H404.21L405.334 247.935Z" fill="white"/>
<path opacity="0.47" d="M380.615 307.075H289.972L288.62 337.227H379.264L380.615 307.075Z" fill="#407BFF"/>
<path d="M374.553 341.912H283.909C283.87 341.922 283.828 341.922 283.789 341.912C283.775 341.872 283.775 341.83 283.789 341.791L285.127 311.626C285.127 311.605 285.131 311.585 285.139 311.566C285.148 311.547 285.16 311.53 285.175 311.516C285.19 311.503 285.208 311.492 285.227 311.485C285.247 311.479 285.267 311.476 285.288 311.478H375.931C375.948 311.47 375.966 311.466 375.985 311.466C376.003 311.466 376.022 311.47 376.038 311.478C376.048 311.495 376.053 311.513 376.053 311.532C376.053 311.551 376.048 311.569 376.038 311.585L374.727 341.818C374.711 341.849 374.686 341.875 374.654 341.892C374.623 341.908 374.588 341.915 374.553 341.912ZM284.07 341.59H374.392L375.731 311.746H285.408L284.07 341.59Z" fill="white"/>
<path d="M331.874 229.574H271.356L270.861 240.842H331.366L331.874 229.574Z" fill="#407BFF"/>
<path d="M378.889 98.754C378.543 106.076 375.939 113.112 371.435 118.896C368.1 123.264 363.809 126.81 358.891 129.263C353.973 131.715 348.558 133.007 343.062 133.041C338.621 133.075 334.221 132.2 330.131 130.468C326.041 128.737 322.349 126.187 319.283 122.974C316.216 119.762 313.839 115.956 312.299 111.791C310.759 107.625 310.088 103.189 310.327 98.754C310.798 89.5518 314.766 80.877 321.421 74.5036C328.075 68.1302 336.913 64.5398 346.127 64.4665C350.571 64.4251 354.977 65.2954 359.072 67.0238C363.166 68.7521 366.863 71.3018 369.934 74.5152C373.004 77.7286 375.383 81.5375 376.923 85.7065C378.463 89.8756 379.132 94.3162 378.889 98.754Z" fill="white"/>
<path d="M382.114 71.6399C382.027 73.5869 381.335 75.4582 380.134 76.9931C379.245 78.1534 378.103 79.0953 376.795 79.7471C375.487 80.3988 374.047 80.7431 372.586 80.7538C371.17 80.7624 369.773 80.4241 368.518 79.7686C367.263 79.113 366.187 78.1601 365.385 76.9931C364.324 75.4161 363.798 73.539 363.887 71.6399C364.016 69.1967 365.072 66.8948 366.841 65.2038C368.609 63.5127 370.955 62.5598 373.402 62.5394C374.582 62.5286 375.752 62.7596 376.84 63.2182C377.927 63.6768 378.91 64.3532 379.726 65.2058C380.542 66.0584 381.175 67.0691 381.586 68.1757C381.997 69.2822 382.177 70.4612 382.114 71.6399Z" fill="#407BFF"/>
<path d="M288.098 192.61C288.034 193.688 287.563 194.702 286.781 195.447C285.998 196.192 284.963 196.613 283.882 196.625C283.361 196.631 282.843 196.53 282.362 196.328C281.881 196.127 281.447 195.828 281.085 195.452C280.724 195.076 280.444 194.629 280.262 194.141C280.08 193.652 280.001 193.131 280.028 192.61C280.086 191.529 280.555 190.511 281.339 189.765C282.122 189.019 283.161 188.6 284.244 188.595C284.765 188.591 285.281 188.693 285.761 188.895C286.242 189.097 286.675 189.396 287.036 189.772C287.397 190.147 287.677 190.593 287.86 191.081C288.043 191.569 288.124 192.089 288.098 192.61Z" fill="#263238"/>
<path d="M306.138 192.61C306.077 193.689 305.607 194.705 304.824 195.451C304.041 196.197 303.004 196.616 301.923 196.625C301.402 196.629 300.886 196.527 300.407 196.324C299.927 196.122 299.494 195.823 299.135 195.447C298.775 195.071 298.496 194.625 298.315 194.137C298.134 193.649 298.054 193.13 298.082 192.61C298.14 191.531 298.607 190.516 299.387 189.77C300.168 189.024 301.204 188.603 302.284 188.595C302.806 188.589 303.323 188.689 303.804 188.891C304.285 189.093 304.72 189.391 305.081 189.767C305.442 190.144 305.722 190.59 305.904 191.079C306.086 191.568 306.166 192.089 306.138 192.61Z" fill="#263238"/>
<path d="M324.192 192.61C324.131 193.689 323.661 194.705 322.878 195.451C322.095 196.197 321.058 196.616 319.977 196.625C319.456 196.629 318.939 196.527 318.459 196.324C317.979 196.122 317.545 195.824 317.184 195.448C316.823 195.072 316.543 194.626 316.36 194.138C316.178 193.65 316.097 193.13 316.122 192.61C316.183 191.53 316.653 190.514 317.436 189.769C318.219 189.023 319.257 188.603 320.338 188.595C320.86 188.589 321.377 188.689 321.858 188.891C322.339 189.093 322.774 189.391 323.135 189.767C323.496 190.144 323.776 190.59 323.958 191.079C324.14 191.568 324.22 192.089 324.192 192.61Z" fill="#263238"/>
<path d="M285.06 260.516C284.996 261.594 284.525 262.608 283.743 263.353C282.96 264.098 281.925 264.519 280.844 264.531C280.323 264.535 279.807 264.433 279.327 264.23C278.846 264.028 278.413 263.73 278.052 263.354C277.691 262.978 277.411 262.532 277.228 262.044C277.045 261.556 276.964 261.036 276.99 260.516C277.051 259.436 277.521 258.42 278.304 257.675C279.087 256.929 280.124 256.509 281.206 256.501C281.727 256.496 282.243 256.599 282.723 256.801C283.203 257.003 283.637 257.302 283.998 257.677C284.359 258.053 284.639 258.499 284.822 258.987C285.004 259.475 285.085 259.995 285.06 260.516Z" fill="#263238"/>
<path d="M303.1 260.516C303.039 261.593 302.572 262.607 301.791 263.352C301.011 264.097 299.977 264.519 298.898 264.531C298.377 264.537 297.859 264.436 297.378 264.234C296.897 264.033 296.463 263.734 296.101 263.358C295.74 262.982 295.46 262.535 295.278 262.046C295.096 261.558 295.016 261.037 295.044 260.516C295.105 259.436 295.575 258.42 296.358 257.675C297.141 256.929 298.178 256.509 299.26 256.501C299.78 256.496 300.296 256.599 300.775 256.801C301.255 257.003 301.688 257.302 302.048 257.678C302.407 258.054 302.687 258.5 302.868 258.988C303.049 259.476 303.128 259.996 303.1 260.516Z" fill="#263238"/>
<path d="M321.194 260.516C321.133 261.595 320.663 262.611 319.88 263.357C319.097 264.102 318.06 264.522 316.979 264.53C316.458 264.533 315.943 264.429 315.463 264.226C314.984 264.023 314.551 263.725 314.191 263.35C313.83 262.974 313.55 262.529 313.366 262.042C313.183 261.555 313.101 261.035 313.124 260.516C313.189 259.437 313.659 258.423 314.442 257.678C315.224 256.933 316.26 256.512 317.34 256.501C317.862 256.494 318.379 256.595 318.86 256.797C319.341 256.999 319.776 257.297 320.137 257.673C320.498 258.049 320.778 258.496 320.96 258.985C321.142 259.474 321.222 259.995 321.194 260.516Z" fill="#263238"/>
<path d="M339.208 260.516C339.144 261.594 338.673 262.608 337.891 263.353C337.108 264.098 336.073 264.519 334.992 264.531C334.472 264.533 333.956 264.429 333.477 264.226C332.998 264.023 332.565 263.725 332.204 263.35C331.844 262.974 331.563 262.529 331.38 262.042C331.197 261.555 331.114 261.036 331.138 260.516C331.202 259.437 331.673 258.423 332.455 257.678C333.238 256.933 334.273 256.512 335.354 256.501C335.875 256.496 336.391 256.599 336.871 256.801C337.352 257.003 337.785 257.302 338.146 257.677C338.507 258.053 338.787 258.499 338.97 258.987C339.153 259.475 339.234 259.995 339.208 260.516Z" fill="#263238"/>
<path d="M357.329 260.516C357.264 261.594 356.794 262.608 356.011 263.353C355.229 264.098 354.193 264.519 353.113 264.531C352.591 264.537 352.074 264.436 351.593 264.234C351.112 264.033 350.677 263.734 350.316 263.358C349.955 262.982 349.675 262.535 349.493 262.046C349.311 261.558 349.231 261.037 349.259 260.516C349.32 259.436 349.79 258.42 350.573 257.675C351.356 256.929 352.393 256.509 353.474 256.501C353.995 256.496 354.512 256.599 354.992 256.801C355.472 257.003 355.906 257.302 356.267 257.677C356.628 258.053 356.908 258.499 357.091 258.987C357.273 259.475 357.354 259.995 357.329 260.516Z" fill="#263238"/>
<path d="M354.59 96.9683C360.191 91.4905 360.489 82.7102 355.254 77.3571C350.019 72.0039 341.234 72.1049 335.632 77.5827C330.031 83.0605 329.734 91.8407 334.969 97.1939C340.204 102.547 348.988 102.446 354.59 96.9683Z" fill="#407BFF"/>
<path d="M371.435 118.896C368.1 123.264 363.809 126.81 358.891 129.263C353.973 131.715 348.558 133.007 343.062 133.042C337.733 133.087 332.475 131.82 327.751 129.353C323.027 126.886 318.983 123.295 315.975 118.896C322.479 112.418 332.771 108.189 344.173 108.189C355.576 108.189 365.506 112.418 371.435 118.896Z" fill="#407BFF"/>
<path opacity="0.1" d="M354.59 96.9683C360.191 91.4905 360.489 82.7102 355.254 77.3571C350.019 72.0039 341.234 72.1049 335.632 77.5827C330.031 83.0605 329.734 91.8407 334.969 97.1939C340.204 102.547 348.988 102.446 354.59 96.9683Z" fill="white"/>
<path opacity="0.1" d="M371.435 118.896C368.1 123.264 363.809 126.81 358.891 129.263C353.973 131.715 348.558 133.007 343.062 133.042C337.733 133.087 332.475 131.82 327.751 129.353C323.027 126.886 318.983 123.295 315.975 118.896C322.479 112.418 332.771 108.189 344.173 108.189C355.576 108.189 365.506 112.418 371.435 118.896Z" fill="white"/>
<path d="M174.529 211.252C173.258 214.036 171.919 217.101 170.755 220.072C169.591 223.043 168.4 226.108 167.369 229.159C165.265 235.172 163.663 241.35 162.578 247.628L162.284 249.595C162.256 249.932 162.287 250.272 162.377 250.599C162.693 251.708 163.191 252.757 163.849 253.704C165.568 256.154 167.562 258.399 169.792 260.395C172.142 262.582 174.608 264.641 177.179 266.565C179.749 268.545 182.452 270.473 185.115 272.293L182.613 276.99C176.253 274.219 170.217 270.759 164.612 266.672C161.622 264.491 158.924 261.936 156.582 259.07C155.195 257.364 154.113 255.431 153.384 253.356C152.96 252.059 152.743 250.704 152.741 249.341C152.741 249.019 152.741 248.551 152.741 248.324V247.668L152.875 246.329C153.643 239.357 155.109 232.479 157.252 225.8C158.295 222.508 159.406 219.229 160.678 216.03C161.949 212.832 163.261 209.7 164.88 206.448L174.529 211.252Z" fill="#E58A7B"/>
<path d="M183.228 271.463L192.69 266.672L190.241 277.057C190.241 277.057 183.75 278.877 180.739 275.719L183.228 271.463Z" fill="#E58A7B"/>
<path d="M201.349 268.372L198.833 276.963L190.241 277.057L192.69 266.672L201.349 268.372Z" fill="#E58A7B"/>
<path d="M214.705 161.146C215.211 163.001 215.916 164.796 216.806 166.499C216.546 166.794 216.211 167.014 215.836 167.134C215.462 167.254 215.062 167.271 214.678 167.182L214.705 161.146Z" fill="#DF5753"/>
<path d="M214.424 161.226C214.978 161.226 215.428 160.537 215.428 159.687C215.428 158.837 214.978 158.148 214.424 158.148C213.87 158.148 213.42 158.837 213.42 159.687C213.42 160.537 213.87 161.226 214.424 161.226Z" fill="#263238"/>
<path d="M214.13 158.202L216.164 157.626C216.164 157.626 215.174 159.206 214.13 158.202Z" fill="#263238"/>
<path d="M188.568 170.969C189.786 177.192 191.004 188.608 186.641 192.77C186.641 192.77 188.354 199.087 199.93 199.087C212.658 199.087 206.006 192.77 206.006 192.77C199.06 191.111 199.234 185.958 200.452 181.114L188.568 170.969Z" fill="#E58A7B"/>
<path d="M185.182 156.783C185.825 167.182 185.878 171.598 191.124 176.938C199.034 184.968 211.667 181.917 214.143 171.585C216.378 162.217 214.96 146.799 204.775 142.664C202.539 141.743 200.106 141.408 197.705 141.689C195.303 141.971 193.013 142.861 191.052 144.275C189.09 145.688 187.522 147.579 186.495 149.768C185.468 151.956 185.016 154.371 185.182 156.783Z" fill="#E58A7B"/>
<path d="M186.213 145.086C180.993 146.987 174.034 145.568 176.764 161.668C179.655 178.718 175.212 184.326 175.212 184.326C175.212 184.326 195.005 188.541 215.214 184.071C215.214 184.071 209.044 173.285 210.771 165.335C212.979 155.298 211.239 151.59 211.239 151.59C211.239 151.59 193.547 142.41 186.213 145.086Z" fill="#263238"/>
<path d="M208.295 162.203C208.3 164.181 208.866 166.116 209.927 167.784C211.346 169.952 213.019 169.122 213.434 166.821C213.809 164.8 213.527 161.226 211.721 159.835C209.914 158.443 208.321 159.808 208.295 162.203Z" fill="#E58A7B"/>
<path d="M181.676 146.84C180.177 142.624 187.323 136.133 202.446 138.81C217.569 141.486 218.225 154.08 218.225 154.08L215.173 150.44L215.307 154.267L199.77 157.252L181.676 146.84Z" fill="#263238"/>
<path d="M182.96 193.48C182.871 192.869 183.024 192.247 183.387 191.747C183.749 191.247 184.292 190.908 184.901 190.803C189.612 190.027 200.318 188.448 205.698 189.197C209.713 189.759 210.757 192.088 210.931 194.002C210.958 194.337 210.914 194.674 210.8 194.99C210.686 195.306 210.506 195.595 210.271 195.836C210.036 196.076 209.753 196.264 209.44 196.387C209.127 196.509 208.791 196.563 208.455 196.544L185.195 195.5C184.647 195.473 184.125 195.257 183.718 194.888C183.311 194.52 183.043 194.022 182.96 193.48Z" fill="#407BFF"/>
<path opacity="0.6" d="M182.96 193.48C182.871 192.869 183.024 192.247 183.387 191.747C183.749 191.247 184.292 190.908 184.901 190.803C189.612 190.027 200.318 188.448 205.698 189.197C209.713 189.759 210.757 192.088 210.931 194.002C210.958 194.337 210.914 194.674 210.8 194.99C210.686 195.306 210.506 195.595 210.271 195.836C210.036 196.076 209.753 196.264 209.44 196.387C209.127 196.509 208.791 196.563 208.455 196.544L185.195 195.5C184.647 195.473 184.125 195.257 183.718 194.888C183.311 194.52 183.043 194.022 182.96 193.48Z" fill="black"/>
<path d="M196.41 427.282L205.043 433.278L219.483 413.699L210.851 407.716L196.41 427.282Z" fill="#E58A7B"/>
<path d="M176.282 426.894L185.396 432.087L198.177 411.383L189.063 406.191L176.282 426.894Z" fill="#E58A7B"/>
<path d="M219.47 413.699L212.029 423.789L203.396 417.807L210.837 407.716L219.47 413.699Z" fill="#CF6F64"/>
<path d="M189.05 406.191L198.177 411.397L191.593 422.063L182.465 416.857L189.05 406.191Z" fill="#CF6F64"/>
<path d="M203.691 258.843C203.691 258.843 237.389 301.307 231.059 341.925C225.96 374.727 196.384 419.145 196.384 419.145L182.479 412.24C192.28 392.6 200.644 372.276 207.505 351.427C209.621 344.954 210.238 338.085 209.311 331.338C208.384 324.592 205.936 318.144 202.152 312.482C185.075 287.549 157.72 302.391 176.122 258.843H203.691Z" fill="#407BFF"/>
<path opacity="0.6" d="M203.691 258.843C203.691 258.843 237.389 301.307 231.059 341.925C225.96 374.727 196.384 419.145 196.384 419.145L182.479 412.24C192.28 392.6 200.644 372.276 207.505 351.427C209.621 344.954 210.238 338.085 209.311 331.338C208.384 324.592 205.936 318.144 202.152 312.482C185.075 287.549 157.72 302.391 176.122 258.843H203.691Z" fill="black"/>
<path opacity="0.4" d="M220.219 286.117L215.321 281.246C215.321 281.634 224.809 340.212 227.473 356.673C229.044 351.864 230.248 346.943 231.073 341.952C234.204 322.024 227.66 301.669 220.219 286.117Z" fill="black"/>
<path d="M218.734 258.843C218.734 258.843 259.311 312.215 260.462 344.214C261.412 370.98 216.298 422.839 216.298 422.839L203.182 414.354C203.182 414.354 229.587 377.524 236.239 347.439C233.669 317.621 179.334 258.843 179.334 258.843H218.734Z" fill="#407BFF"/>
<path opacity="0.6" d="M218.734 258.843C218.734 258.843 259.311 312.215 260.462 344.214C261.412 370.98 216.298 422.839 216.298 422.839L203.182 414.354C203.182 414.354 229.587 377.524 236.239 347.439C233.669 317.621 179.334 258.843 179.334 258.843H218.734Z" fill="black"/>
<path d="M168.533 195.153C164.197 196.183 160.035 211.948 160.035 211.948L176.992 223.27C176.992 223.27 182.639 210.797 180.659 205.337C178.611 199.649 173.98 193.854 168.533 195.153Z" fill="#407BFF"/>
<path opacity="0.2" d="M171.853 205.31L170.675 219.055L176.978 223.284C178.719 219.365 180.007 215.262 180.819 211.052L171.853 205.31Z" fill="black"/>
<path d="M223.752 195.46C223.752 195.46 228.757 197.213 218.733 258.829H176.095C176.818 241.431 176.831 230.725 168.533 195.152C174.504 193.922 180.555 193.126 186.641 192.77C193.088 192.308 199.559 192.308 206.006 192.77C214.33 193.533 223.752 195.46 223.752 195.46Z" fill="#407BFF"/>
<path d="M228.088 205.31C229.052 207.987 230.069 210.864 231.14 213.635C232.21 216.405 233.227 219.256 234.311 222.066L237.59 230.471L238.42 232.572L238.848 233.616L239.049 234.138C239.049 234.231 239.049 234.231 239.049 234.218C238.804 233.873 238.484 233.589 238.112 233.388C237.583 233.077 236.986 232.897 236.372 232.866C235.863 232.85 235.356 232.946 234.887 233.147C234.271 233.428 234.271 233.549 234.285 233.535C234.396 233.446 234.495 233.343 234.579 233.227C235.32 232.255 235.961 231.21 236.493 230.109C237.122 228.878 237.724 227.566 238.326 226.242C239.504 223.565 240.588 220.795 241.672 217.998C242.756 215.2 243.787 212.377 244.79 209.526L247.842 200.988L252.994 202.326C251.977 208.429 250.666 214.371 249.086 220.42C248.323 223.431 247.427 226.416 246.41 229.427C245.901 230.939 245.339 232.438 244.697 233.977C244.027 235.647 243.203 237.251 242.234 238.768C241.878 239.279 241.485 239.762 241.056 240.213C240.373 240.952 239.544 241.54 238.621 241.94C237.802 242.291 236.915 242.456 236.024 242.422C235.027 242.385 234.055 242.094 233.201 241.579C232.192 240.949 231.356 240.08 230.765 239.049C230.564 238.701 230.39 238.353 230.27 238.099L230.015 237.59L229.507 236.546L228.49 234.472C227.151 231.688 225.813 228.878 224.649 226.054C223.484 223.23 222.253 220.366 221.102 217.489C219.951 214.612 218.921 211.734 217.944 208.629L228.088 205.31Z" fill="#E58A7B"/>
<path d="M223.752 195.46C228.878 196.678 234.646 211.828 234.646 211.828L219.403 224.796C219.403 224.796 209.539 208.281 211.533 202.834C213.608 197.16 217.061 193.868 223.752 195.46Z" fill="#407BFF"/>
<path d="M250.264 196.197L255.617 191.727L259.338 197.521L256.594 202.353C256.594 202.353 252.231 206.368 248.377 204.32C247.765 202.945 247.618 201.408 247.959 199.942C248.3 198.476 249.109 197.161 250.264 196.197Z" fill="#E58A7B"/>
<path d="M265.28 191.74L264.878 193.199L256.407 194.617L255.577 191.727L265.28 191.74Z" fill="#E58A7B"/>
<path d="M217.342 423.522L202.058 413.645L204.802 408.881L221.972 419.44L217.342 423.522Z" fill="#407BFF"/>
<path d="M191.378 431.391C190.037 431.227 188.749 430.77 187.604 430.053C187.557 430.036 187.516 430.006 187.487 429.965C187.458 429.924 187.443 429.875 187.443 429.825C187.443 429.775 187.458 429.726 187.487 429.686C187.516 429.645 187.557 429.614 187.604 429.598C188.019 429.464 191.619 428.353 192.663 429.21C192.781 429.307 192.87 429.434 192.921 429.578C192.973 429.721 192.986 429.876 192.958 430.026C192.939 430.267 192.859 430.499 192.726 430.7C192.592 430.902 192.409 431.066 192.195 431.177C191.944 431.314 191.664 431.387 191.378 431.391ZM188.367 429.919C190.04 430.775 191.378 431.083 192.021 430.762C192.161 430.684 192.278 430.572 192.363 430.437C192.447 430.301 192.495 430.146 192.503 429.986C192.503 429.772 192.503 429.678 192.382 429.624C191.82 429.169 189.813 429.517 188.34 429.919H188.367Z" fill="#263238"/>
<path d="M187.698 430.146C187.628 430.145 187.56 430.117 187.511 430.066C187.491 430.029 187.48 429.988 187.48 429.946C187.48 429.904 187.491 429.862 187.511 429.825C187.511 429.705 188.381 426.801 189.746 426.145C189.92 426.065 190.11 426.024 190.301 426.024C190.493 426.024 190.682 426.065 190.857 426.145C191.045 426.204 191.207 426.325 191.319 426.487C191.43 426.65 191.484 426.845 191.472 427.042C191.379 428.246 188.929 429.906 187.805 430.187L187.698 430.146ZM190.295 426.493C190.164 426.497 190.037 426.529 189.92 426.587C189.09 426.988 188.407 428.554 188.073 429.504C189.251 429.009 190.87 427.697 190.924 426.961C190.924 426.841 190.923 426.694 190.616 426.56C190.516 426.506 190.407 426.47 190.295 426.453V426.493Z" fill="#263238"/>
<path d="M210.476 437.172C208.964 437.172 206.863 435.232 205.712 434.041C205.682 434 205.667 433.951 205.667 433.9C205.667 433.85 205.682 433.801 205.712 433.76C205.738 433.717 205.776 433.681 205.82 433.658C205.865 433.634 205.915 433.623 205.966 433.626C206.501 433.626 211.145 434.322 211.801 435.633C211.87 435.751 211.907 435.885 211.907 436.022C211.907 436.158 211.87 436.292 211.801 436.41C211.703 436.614 211.554 436.79 211.369 436.921C211.184 437.052 210.969 437.134 210.744 437.159L210.476 437.172ZM206.595 434.228C208.281 435.861 209.767 436.771 210.61 436.664C210.758 436.645 210.898 436.589 211.02 436.503C211.141 436.417 211.239 436.302 211.306 436.169C211.336 436.123 211.352 436.07 211.352 436.015C211.352 435.96 211.336 435.907 211.306 435.861C210.958 435.138 208.482 434.523 206.595 434.228Z" fill="#263238"/>
<path d="M206.742 434.161C206.442 434.17 206.141 434.147 205.845 434.094C205.804 434.088 205.765 434.071 205.732 434.046C205.699 434.02 205.674 433.986 205.658 433.947C205.638 433.908 205.628 433.864 205.628 433.82C205.628 433.776 205.638 433.732 205.658 433.693C205.738 433.599 207.545 431.418 209.258 431.271C209.743 431.233 210.223 431.387 210.596 431.699C211.118 432.154 211.092 432.555 210.958 432.81C210.623 433.72 208.308 434.161 206.742 434.161ZM206.394 433.666C207.893 433.746 210.289 433.251 210.596 432.595C210.596 432.595 210.704 432.381 210.356 432.087C210.217 431.967 210.055 431.876 209.88 431.821C209.705 431.765 209.521 431.747 209.338 431.766C208.185 432.088 207.157 432.756 206.394 433.68V433.666Z" fill="#263238"/>
<path d="M188.059 428.701L176.711 425.489C176.515 425.43 176.304 425.445 176.119 425.531C175.934 425.618 175.787 425.769 175.707 425.957L171.879 434.563C171.789 434.783 171.747 435.02 171.755 435.258C171.764 435.496 171.822 435.729 171.927 435.943C172.032 436.157 172.181 436.346 172.364 436.498C172.547 436.65 172.761 436.761 172.99 436.825C177.005 437.868 178.932 438.163 183.924 439.595C187.002 440.451 191.392 442.044 195.634 443.248C199.877 444.453 201.295 440.318 199.649 439.434C192.208 435.5 191.619 432.743 189.585 429.798C189.221 429.265 188.681 428.877 188.059 428.701Z" fill="#407BFF"/>
<path d="M206.019 432.475L196.33 425.783C196.166 425.664 195.963 425.609 195.761 425.628C195.559 425.648 195.371 425.741 195.233 425.891L188.809 432.796C188.652 432.975 188.535 433.184 188.466 433.412C188.397 433.639 188.377 433.878 188.407 434.113C188.438 434.349 188.518 434.575 188.642 434.777C188.767 434.979 188.933 435.153 189.13 435.285C192.543 437.574 194.309 438.497 198.578 441.455C201.255 443.275 206.434 447.317 210.048 449.833C213.661 452.349 216.351 448.896 215.066 447.531C209.312 441.388 208.054 437.534 207.103 434.041C206.938 433.407 206.554 432.852 206.019 432.475Z" fill="#407BFF"/>
<path d="M198.164 420.029L180.699 411.343L182.505 406.606L201.161 415.76L198.164 420.029Z" fill="#407BFF"/>
<path d="M175.453 256.327L173.98 260.181C173.833 260.475 174.181 260.783 174.676 260.783H218.948C219.336 260.783 219.657 260.596 219.684 260.355L220.058 256.527C220.058 256.273 219.751 256.046 219.336 256.046H176.148C176.018 256.033 175.887 256.053 175.766 256.101C175.645 256.15 175.538 256.228 175.453 256.327Z" fill="#407BFF"/>
<path opacity="0.4" d="M175.453 256.327L173.98 260.181C173.833 260.475 174.181 260.783 174.676 260.783H218.948C219.336 260.783 219.657 260.596 219.684 260.355L220.058 256.527C220.058 256.273 219.751 256.046 219.336 256.046H176.148C176.018 256.033 175.887 256.053 175.766 256.101C175.645 256.15 175.538 256.228 175.453 256.327Z" fill="white"/>
<path d="M182.425 261.158H181.261C181.033 261.158 180.859 261.038 180.873 260.89L181.422 255.925C181.422 255.791 181.636 255.671 181.863 255.671H183.027C183.255 255.671 183.429 255.791 183.416 255.925L182.867 260.89C182.853 261.038 182.653 261.158 182.425 261.158Z" fill="#407BFF"/>
<path d="M209.727 261.158H208.576C208.348 261.158 208.174 261.038 208.187 260.89L208.723 255.925C208.723 255.791 208.95 255.671 209.178 255.671H210.329C210.556 255.671 210.744 255.791 210.717 255.925L210.182 260.89C210.115 261.038 209.967 261.158 209.727 261.158Z" fill="#407BFF"/>
<g style="mix-blend-mode:multiply">
<path d="M181.408 487.801C201.209 487.801 217.261 486.638 217.261 485.205C217.261 483.771 201.209 482.608 181.408 482.608C161.607 482.608 145.555 483.771 145.555 485.205C145.555 486.638 161.607 487.801 181.408 487.801Z" fill="#F5F5F5"/>
</g>
<path d="M203.249 481.537C196.906 479.691 189.866 477.322 185.61 474.846C185.49 474.766 185.356 474.725 185.236 474.659V445.938H198.07C199.044 445.881 199.96 445.453 200.629 444.743C201.298 444.033 201.671 443.094 201.671 442.118C201.671 441.142 201.298 440.202 200.629 439.492C199.96 438.782 199.044 438.354 198.07 438.297H185.302V307.383H177.594V438.297H164.84C164.319 438.266 163.797 438.342 163.307 438.52C162.817 438.698 162.368 438.974 161.988 439.332C161.609 439.69 161.306 440.122 161.099 440.601C160.893 441.08 160.786 441.596 160.786 442.118C160.786 442.639 160.893 443.155 161.099 443.634C161.306 444.113 161.609 444.545 161.988 444.903C162.368 445.261 162.817 445.537 163.307 445.715C163.797 445.893 164.319 445.969 164.84 445.938H177.594V474.618C177.473 474.618 177.353 474.725 177.232 474.806C172.91 477.322 165.924 479.691 159.58 481.497C159.152 481.627 158.784 481.906 158.543 482.283C158.302 482.66 158.204 483.112 158.267 483.555C158.331 483.998 158.55 484.404 158.887 484.699C159.223 484.994 159.654 485.159 160.102 485.164H202.727C203.155 485.135 203.56 484.96 203.874 484.669C204.189 484.377 204.393 483.986 204.454 483.562C204.515 483.137 204.429 482.705 204.21 482.337C203.99 481.968 203.651 481.686 203.249 481.537Z" fill="#E0E0E0"/>
<path d="M205.217 294.054H157.626C153.798 294.054 150.694 297.157 150.694 300.986V315.132C150.694 318.961 153.798 322.065 157.626 322.065H205.217C209.045 322.065 212.149 318.961 212.149 315.132V300.986C212.149 297.157 209.045 294.054 205.217 294.054Z" fill="#407BFF"/>
<path d="M157.185 322.078V324.514C157.185 326.521 159.366 328.154 162.043 328.154H200.854C203.53 328.154 205.712 326.521 205.712 324.514V322.078H157.185Z" fill="#407BFF"/>
<path opacity="0.3" d="M157.185 322.078V324.514C157.185 326.521 159.366 328.154 162.043 328.154H200.854C203.53 328.154 205.712 326.521 205.712 324.514V322.078H157.185Z" fill="white"/>
</svg>
