<svg width="1440" height="956" viewBox="0 0 1440 956" fill="none" xmlns="http://www.w3.org/2000/svg">
<rect width="1440" height="956" fill="#F2F2F2"/>
<path fill-rule="evenodd" clip-rule="evenodd" d="M0 163L60 229.083C120 295.167 240 427.333 360 427.333C480 427.333 600 295.167 720 321.6C840 348.033 960 533.067 1080 638.8C1200 744.533 1320 770.967 1380 784.183L1440 797.4V956H1380C1320 956 1200 956 1080 956C960 956 840 956 720 956C600 956 480 956 360 956C240 956 120 956 60 956H0V163Z" fill="white" fill-opacity="0.4"/>
<path fill-rule="evenodd" clip-rule="evenodd" d="M1440 696.709L1380 729.121C1320 761.532 1200 826.355 1080 804.747C960 783.14 840 675.102 720 610.279C600 545.457 480 523.849 360 534.653C240 545.457 120 588.672 60 610.279L0 631.887V956H60C120 956 240 956 360 956C480 956 600 956 720 956C840 956 960 956 1080 956C1200 956 1320 956 1380 956H1440V696.709Z" fill="white"/>
</svg>
