<svg width="17" height="17" viewBox="0 0 17 17" fill="none" xmlns="http://www.w3.org/2000/svg">
<path fill-rule="evenodd" clip-rule="evenodd" d="M0 1.21429C0 0.543654 0.543654 0 1.21429 0H15.7857C16.4563 0 17 0.543654 17 1.21429C17 1.88492 16.4563 2.42857 15.7857 2.42857H1.21429C0.543655 2.42857 0 1.88492 0 1.21429ZM0 8.50011C0 7.82948 0.543654 7.28582 1.21429 7.28582H15.7857C16.4563 7.28582 17 7.82948 17 8.50011C17 9.17074 16.4563 9.71439 15.7857 9.71439H1.21429C0.543655 9.71439 0 9.17074 0 8.50011ZM1.21429 14.5713C0.543654 14.5713 0 15.1149 0 15.7856C0 16.4562 0.543655 16.9998 1.21429 16.9998H15.7857C16.4563 16.9998 17 16.4562 17 15.7856C17 15.1149 16.4563 14.5713 15.7857 14.5713H1.21429Z" fill="white"/>
</svg>
