<svg width="19" height="20" viewBox="0 0 19 20" fill="none" xmlns="http://www.w3.org/2000/svg">
<path fill-rule="evenodd" clip-rule="evenodd" d="M14 8C14 11.3137 11.3137 14 8 14C4.68629 14 2 11.3137 2 8C2 4.68629 4.68629 2 8 2C11.3137 2 14 4.68629 14 8ZM12.8402 14.3702C11.4963 15.3929 9.81904 16 8 16C3.58172 16 0 12.4183 0 8C0 3.58172 3.58172 0 8 0C12.4183 0 16 3.58172 16 8C16 9.87602 15.3543 11.6012 14.2729 12.9654L18.7682 18.3598C19.1218 18.7841 19.0645 19.4147 18.6402 19.7682C18.2159 20.1218 17.5853 20.0645 17.2318 19.6402L12.8402 14.3702Z" fill="#9E9E9E"/>
</svg>
